<svg width="28" height="30" viewBox="0 0 28 30" fill="none" xmlns="http://www.w3.org/2000/svg">
<g filter="url(#filter0_d_44_15044)">
<path d="M14 2C8.48 2 4 6.48 4 12C4 17.52 8.48 22 14 22C19.52 22 24 17.52 24 12C24 6.48 19.53 2 14 2Z" fill="#869DBF"/>
<rect x="6" y="4" width="16" height="16" rx="8" fill="#D8D8D8" fill-opacity="0.05"/>
<path d="M14 6C10.688 6 8 8.688 8 12C8 15.312 10.688 18 14 18C17.312 18 20 15.312 20 12C20 8.688 17.318 6 14 6Z" fill="#90A3BF"/>
<rect x="10" y="8" width="8" height="8" rx="4" fill="#D8D8D8" fill-opacity="0.05"/>
<rect x="13" y="17" width="2" height="4" fill="#90A3BF"/>
<rect x="19" y="11" width="4" height="2" fill="#869DBF"/>
<rect x="5" y="11" width="4" height="2" fill="#869DBF"/>
</g>
<defs>
<filter id="filter0_d_44_15044" x="-2" y="0" width="32" height="32" filterUnits="userSpaceOnUse" color-interpolation-filters="sRGB">
<feFlood flood-opacity="0" result="BackgroundImageFix"/>
<feColorMatrix in="SourceAlpha" type="matrix" values="0 0 0 0 0 0 0 0 0 0 0 0 0 0 0 0 0 0 127 0" result="hardAlpha"/>
<feOffset dy="4"/>
<feGaussianBlur stdDeviation="2"/>
<feComposite in2="hardAlpha" operator="out"/>
<feColorMatrix type="matrix" values="0 0 0 0 0 0 0 0 0 0 0 0 0 0 0 0 0 0 0.25 0"/>
<feBlend mode="normal" in2="BackgroundImageFix" result="effect1_dropShadow_44_15044"/>
<feBlend mode="normal" in="SourceGraphic" in2="effect1_dropShadow_44_15044" result="shape"/>
</filter>
</defs>
</svg>
