<svg width="30" height="31" viewBox="0 0 30 31" fill="none" xmlns="http://www.w3.org/2000/svg">
<g filter="url(#filter0_d_44_15041)">
<path d="M25.34 9.33L23.34 8.33C22.97 8.15 22.51 8.29 22.33 8.66C22.14 9.04 22.29 9.49 22.66 9.67L24.25 10.46V15.25L20.5 15.26V5C20.5 3 19.16 2 17.5 2H9.5C7.84 2 6.5 3 6.5 5V21.25H5C4.59 21.25 4.25 21.59 4.25 22C4.25 22.41 4.59 22.75 5 22.75H22C22.41 22.75 22.75 22.41 22.75 22C22.75 21.59 22.41 21.25 22 21.25H20.5V16.76L25 16.75C25.42 16.75 25.75 16.41 25.75 16V10C25.75 9.72 25.59 9.46 25.34 9.33ZM9 6.89C9 5.5 9.85 5 10.89 5H16.12C17.15 5 18 5.5 18 6.89V8.12C18 9.5 17.15 10 16.11 10H10.89C9.85 10 9 9.5 9 8.11V6.89ZM9.5 12.25H12.5C12.91 12.25 13.25 12.59 13.25 13C13.25 13.41 12.91 13.75 12.5 13.75H9.5C9.09 13.75 8.75 13.41 8.75 13C8.75 12.59 9.09 12.25 9.5 12.25Z" fill="#90A3BF"/>
</g>
<defs>
<filter id="filter0_d_44_15041" x="-1" y="0" width="32" height="32" filterUnits="userSpaceOnUse" color-interpolation-filters="sRGB">
<feFlood flood-opacity="0" result="BackgroundImageFix"/>
<feColorMatrix in="SourceAlpha" type="matrix" values="0 0 0 0 0 0 0 0 0 0 0 0 0 0 0 0 0 0 127 0" result="hardAlpha"/>
<feOffset dy="4"/>
<feGaussianBlur stdDeviation="2"/>
<feComposite in2="hardAlpha" operator="out"/>
<feColorMatrix type="matrix" values="0 0 0 0 0 0 0 0 0 0 0 0 0 0 0 0 0 0 0.25 0"/>
<feBlend mode="normal" in2="BackgroundImageFix" result="effect1_dropShadow_44_15041"/>
<feBlend mode="normal" in="SourceGraphic" in2="effect1_dropShadow_44_15041" result="shape"/>
</filter>
</defs>
</svg>
