<svg width="20" height="18" viewBox="0 0 20 18" fill="none" xmlns="http://www.w3.org/2000/svg">
<path fill-rule="evenodd" clip-rule="evenodd" d="M9.1667 1.65838C9.22427 1.47584 9.33852 1.31641 9.49287 1.20324C9.64723 1.09007 9.83364 1.02905 10.025 1.02905C10.2164 1.02905 10.4028 1.09007 10.5572 1.20324C10.7116 1.31641 10.8258 1.47584 10.8834 1.65838L12.4334 6.42505H17.4334C17.6316 6.41755 17.8269 6.47516 17.9893 6.58908C18.1517 6.70299 18.2723 6.86695 18.3328 7.05589C18.3933 7.24484 18.3902 7.44838 18.3241 7.63542C18.258 7.82247 18.1325 7.98273 17.9667 8.09171L13.9084 11.0334L15.4584 15.8084C15.5197 15.9903 15.5212 16.187 15.4628 16.3698C15.4043 16.5526 15.289 16.712 15.1336 16.8246C14.9781 16.9372 14.7908 16.9972 14.5988 16.9958C14.4069 16.9944 14.2204 16.9316 14.0667 16.8167L10 13.8417L5.9417 16.7917C5.78796 16.9066 5.60151 16.9694 5.40957 16.9708C5.21764 16.9722 5.03028 16.9122 4.87485 16.7996C4.71942 16.687 4.60406 16.5276 4.54563 16.3448C4.48719 16.162 4.48874 15.9653 4.55004 15.7834L6.10004 11.0084L2.0417 8.06671C1.87594 7.95773 1.75041 7.79747 1.6843 7.61042C1.61819 7.42338 1.61514 7.21984 1.6756 7.03089C1.73606 6.84195 1.85672 6.67799 2.01914 6.56408C2.18155 6.45016 2.3768 6.39255 2.57504 6.40005H7.57504L9.1667 1.65838Z" stroke="#90A3BF" stroke-width="1.5" stroke-linecap="round" stroke-linejoin="round"/>
</svg>
