<svg width="18" height="16" viewBox="0 0 18 16" fill="none" xmlns="http://www.w3.org/2000/svg">
<path fill-rule="evenodd" clip-rule="evenodd" d="M8.1667 0.65838C8.22427 0.475844 8.33852 0.316412 8.49287 0.203241C8.64723 0.0900697 8.83364 0.0290527 9.02504 0.0290527C9.21643 0.0290527 9.40285 0.0900697 9.5572 0.203241C9.71155 0.316412 9.82581 0.475844 9.88337 0.65838L11.4334 5.42505H16.4334C16.6316 5.41755 16.8269 5.47516 16.9893 5.58908C17.1517 5.70299 17.2723 5.86695 17.3328 6.05589C17.3933 6.24484 17.3902 6.44838 17.3241 6.63542C17.258 6.82247 17.1325 6.98273 16.9667 7.09171L12.9084 10.0334L14.4584 14.8084C14.5197 14.9903 14.5212 15.187 14.4628 15.3698C14.4043 15.5526 14.289 15.712 14.1336 15.8246C13.9781 15.9372 13.7908 15.9972 13.5988 15.9958C13.4069 15.9944 13.2204 15.9316 13.0667 15.8167L9.00004 12.8417L4.9417 15.7917C4.78796 15.9066 4.60151 15.9694 4.40957 15.9708C4.21764 15.9722 4.03028 15.9122 3.87485 15.7996C3.71942 15.687 3.60406 15.5276 3.54563 15.3448C3.48719 15.162 3.48874 14.9653 3.55004 14.7834L5.10004 10.0084L1.0417 7.06671C0.87594 6.95773 0.750413 6.79747 0.684304 6.61042C0.618195 6.42338 0.615138 6.21984 0.6756 6.03089C0.736062 5.84195 0.856719 5.67799 1.01914 5.56408C1.18155 5.45016 1.3768 5.39255 1.57504 5.40005H6.57504L8.1667 0.65838Z" fill="#FBAD39"/>
</svg>
